<?xml version="1.0" encoding="utf-8"?>
<!-- Generator: Adobe Illustrator 26.4.1, SVG Export Plug-In . SVG Version: 6.00 Build 0)  -->
<svg version="1.1" id="图层_1" xmlns="http://www.w3.org/2000/svg" xmlns:xlink="http://www.w3.org/1999/xlink" x="0px" y="0px"
	 viewBox="0 0 476 120" style="enable-background:new 0 0 476 120;" xml:space="preserve">
<style type="text/css">
	.st0{fill-rule:evenodd;clip-rule:evenodd;fill:#FFFFFF;}
	.st1{fill:#FFFFFF;}
</style>
<g>
	<g>
		<path class="st0" d="M0.2,59.6l0,0.6c0,32.9,26.9,59.9,60.2,59.9c32.9,0,59.8-27,59.8-59.9l-59.8,0l0-60.2
			C38.8,0,19.9,11.3,9.3,28.3C3.5,37.7,0.3,48.5,0.2,59.6z"/>
		<path class="st0" d="M63.8,56.5l56.5,0l0-56.3l-56.5,0L63.8,56.5z"/>
	</g>
	<g>
		<path class="st1" d="M191.6,87.1V76.4c-0.9,1.9-2,3.5-3.3,4.8s-2.8,2.5-4.5,3.4c-1.6,0.9-3.4,1.6-5.3,2s-3.8,0.7-5.7,0.7
			c-3.5,0-6.7-0.6-9.6-1.7c-2.9-1.2-5.6-3-8-5.5c-2.4-2.5-4.2-5.5-5.4-9c-1.3-3.5-1.9-7.1-1.9-10.9c0-3.8,0.6-7.4,1.9-10.8
			c1.3-3.4,3-6.3,5.3-8.8c2.3-2.5,5-4.5,8.1-5.9c3.1-1.4,6.5-2.1,10.2-2.1c3.4,0,6.3,0.5,8.7,1.4c2.4,1,4.5,2.1,6.2,3.5
			s3.1,2.7,4.1,3.9h3.4v6.3h-7.6c-1.6-2.7-3.7-4.8-6.2-6.3c-2.6-1.5-5.5-2.3-8.7-2.2c-2.7,0-5.2,0.6-7.4,1.7
			c-2.2,1.1-4.2,2.7-5.8,4.6c-1.6,1.9-2.9,4.2-3.7,6.7c-0.9,2.5-1.3,5.2-1.3,8c0,3.1,0.5,6,1.5,8.7s2.2,4.8,3.8,6.5
			c1.5,1.7,3.4,3,5.6,4.1c2.2,1.1,4.7,1.6,7.4,1.6c4.5,0,8.2-1.1,11.1-3.3c2.9-2.2,4.9-5.6,6-10.2h-14.9v-6h22.5v25.6H191.6z"/>
		<path class="st1" d="M225.9,83.5c-1.4,1.3-2.9,2.3-4.6,3.2c-1.7,0.8-3.6,1.2-5.7,1.2c-1.8,0-3.4-0.3-4.9-0.8
			c-1.5-0.6-2.8-1.3-3.8-2.3c-1.1-1-1.9-2.1-2.5-3.4c-0.6-1.3-0.9-2.7-0.9-4.1c0-1.5,0.2-2.9,0.7-4.1s1.1-2.2,1.8-3.1
			c0.8-0.9,1.7-1.6,2.7-2.2s2.1-1.1,3.2-1.4c1.1-0.4,2.2-0.6,3.4-0.8c1.2-0.2,2.3-0.2,3.3-0.2c1.7,0,3.1,0.1,4.3,0.2
			c1.1,0.1,2.2,0.3,3.1,0.4l0-3c0-1.3-0.2-2.4-0.6-3.4c-0.4-0.9-0.9-1.7-1.6-2.4c-0.7-0.6-1.5-1.1-2.4-1.4c-0.9-0.3-2-0.5-3.2-0.5
			c-1.1,0-2.2,0.1-3.2,0.2c-1,0.2-2,0.4-2.8,0.6s-1.7,0.5-2.4,0.8s-1.4,0.7-1.9,1l-2.1-4.5c0.9-0.6,1.8-1.1,2.8-1.6
			c1-0.5,2.1-0.9,3.3-1.2c1.1-0.3,2.3-0.6,3.5-0.8c1.2-0.2,2.3-0.3,3.5-0.3c2.1,0,4,0.3,5.7,0.8c1.7,0.5,3.1,1.3,4.3,2.3
			c1.2,1.1,2.1,2.4,2.7,4c0.6,1.6,0.9,3.6,0.9,5.9l0,18.2h4v6h-10.6V83.5z M217,82.4c0.9,0,1.7-0.1,2.6-0.3c0.9-0.2,1.7-0.5,2.5-0.9
			c0.8-0.4,1.5-0.8,2.1-1.3c0.7-0.5,1.2-1,1.7-1.5l0-8.2h-7.6c-1.3,0-2.4,0.1-3.5,0.4c-1,0.3-1.9,0.7-2.7,1.2
			c-0.8,0.5-1.4,1.2-1.8,2c-0.4,0.8-0.6,1.7-0.6,2.7c0,1,0.2,1.8,0.5,2.5c0.4,0.7,0.8,1.3,1.5,1.8c0.6,0.5,1.4,0.8,2.3,1.1
			C215,82.3,216,82.4,217,82.4z"/>
		<path class="st1" d="M240.3,50.4h11.6v4.3h0.1c0.8-0.7,1.6-1.3,2.5-1.9s1.8-1.1,2.8-1.6c1-0.4,2-0.8,3-1.1c1-0.3,2.1-0.4,3.3-0.4
			c2.6,0,4.9,0.5,6.8,1.5c1.9,1,3.4,2.5,4.4,4.6c0.9-0.8,1.8-1.6,2.8-2.3s2-1.4,3.1-1.9c1.1-0.5,2.2-1,3.4-1.3
			c1.2-0.3,2.4-0.5,3.7-0.5c2,0,3.7,0.3,5.3,0.8c1.6,0.5,2.9,1.4,4,2.5c1.1,1.1,1.9,2.5,2.5,4.2c0.6,1.7,0.9,3.8,0.9,6.1v17.4h5.1v6
			h-17v-6h5.1V64.2c0-2.8-0.7-4.9-2.1-6.3s-3.4-2.2-6.1-2.2c-1.6,0-3.2,0.4-4.8,1.1c-1.6,0.8-3,1.7-4.2,2.8v21.2h5v6h-17v-6h5.1
			V64.2c0-2.8-0.7-4.9-2.1-6.3c-1.4-1.4-3.5-2.2-6.1-2.2c-1.5,0-3.1,0.4-4.6,1.1c-1.5,0.7-3,1.6-4.4,2.7v21.3h5.1v6h-17v-6h5.1V56.5
			h-5.1V50.4z"/>
		<path class="st1" d="M314.9,69.5c0,1,0.1,2,0.2,2.8c0.2,0.9,0.4,1.7,0.7,2.4c0.9,2.3,2.3,4.1,4.2,5.3c1.9,1.2,4.1,1.8,6.5,1.8
			c1.9,0,3.7-0.3,5.5-0.8s3.7-1.4,5.6-2.5l2.6,4.5c-2.4,1.6-4.8,2.9-7.2,3.7c-2.4,0.8-4.9,1.2-7.5,1.2c-2.5,0-4.7-0.4-6.8-1.2
			c-2.1-0.8-3.9-2-5.4-3.7s-2.7-3.6-3.6-6c-0.9-2.4-1.3-5.2-1.3-8.4c0-2.6,0.4-5.1,1.1-7.4c0.7-2.3,1.8-4.3,3.3-6s3.2-3.1,5.4-4.1
			c2.1-1,4.6-1.5,7.5-1.5c2.7,0,5,0.4,6.9,1.2c1.8,0.8,3.3,1.9,4.5,3.3s2,2.9,2.6,4.7s1,3.6,1.2,5.4c0.1,0.9,0.2,1.8,0.2,2.7
			s0.1,1.8,0.1,2.7H314.9z M325.2,55c-1.5,0-2.9,0.2-4,0.7c-1.1,0.4-2.1,1.1-2.9,1.9c-0.8,0.8-1.4,1.8-1.9,3
			c-0.5,1.2-0.8,2.5-1.1,3.9h18.9c-0.1-1.4-0.3-2.6-0.7-3.8c-0.3-1.1-0.9-2.1-1.6-3s-1.6-1.5-2.7-2C328.1,55.2,326.8,55,325.2,55z"
			/>
		<path class="st1" d="M348,33.5h17.3v6.1h-5.3v41.2h18.4c0.4,0,0.8-0.1,1.1-0.3c0.4-0.2,0.7-0.4,1-0.7c0.3-0.3,0.6-0.6,0.7-1
			c0.2-0.4,0.3-0.7,0.3-1.1v-6.7h6.7v15.8H348v-6h5.1V39.6H348V33.5z"/>
		<path class="st1" d="M413.9,50.4h11.7v30.4h4v6h-10.6v-3.4c-1.6,1.3-3.4,2.2-5.4,3s-4,1.1-6.2,1.1c-1.8,0-3.5-0.3-5-0.8
			c-1.5-0.5-2.8-1.3-3.8-2.5c-1-1.1-1.8-2.5-2.4-4.2c-0.6-1.7-0.8-3.7-0.8-6.1V56.5h-4.9v-6h11.7v22.7c0,2.8,0.6,4.9,1.9,6.3
			c1.3,1.4,3.1,2.1,5.6,2.1c1.4,0,2.9-0.3,4.5-0.8c1.6-0.5,3.1-1.2,4.5-2.1V56.5h-4.9V50.4z"/>
		<path class="st1" d="M435.6,32.1h12.8v6h-0.1v27.2h6.3l8.6-8.9h-2.2v-6H475v6h-4.6l-11.1,11.4l12.1,12.9h4.4v6h-7.7l-14.9-16.3
			h-4.8v10.2h3v6h-15.6v-6h6V38.2h-6.2V32.1z"/>
	</g>
</g>
</svg>
