<svg xmlns="http://www.w3.org/2000/svg" xmlns:xlink="http://www.w3.org/1999/xlink" width="117" zoomAndPan="magnify" viewBox="0 0 87.75 37.5" height="50" preserveAspectRatio="xMidYMid meet" version="1.0"><defs><g/></defs><g fill="#ffffff" fill-opacity="1"><g transform="translate(1.448071, 24.771829)"><g><path d="M 11.1875 0.046875 L 11.1875 -2.546875 C 10.96875 -2.085938 10.695312 -1.691406 10.375 -1.359375 C 10.050781 -1.035156 9.691406 -0.765625 9.296875 -0.546875 C 8.898438 -0.328125 8.472656 -0.160156 8.015625 -0.046875 C 7.566406 0.0546875 7.109375 0.109375 6.640625 0.109375 C 5.804688 0.109375 5.03125 -0.03125 4.3125 -0.3125 C 3.601562 -0.59375 2.960938 -1.039062 2.390625 -1.65625 C 1.816406 -2.269531 1.375 -3 1.0625 -3.84375 C 0.757812 -4.6875 0.609375 -5.566406 0.609375 -6.484375 C 0.609375 -7.398438 0.757812 -8.265625 1.0625 -9.078125 C 1.375 -9.898438 1.800781 -10.613281 2.34375 -11.21875 C 2.894531 -11.832031 3.550781 -12.3125 4.3125 -12.65625 C 5.070312 -13 5.894531 -13.171875 6.78125 -13.171875 C 7.59375 -13.171875 8.289062 -13.050781 8.875 -12.8125 C 9.46875 -12.582031 9.972656 -12.300781 10.390625 -11.96875 C 10.804688 -11.644531 11.140625 -11.332031 11.390625 -11.03125 L 12.21875 -11.03125 L 12.21875 -9.515625 L 10.390625 -9.515625 C 10.003906 -10.160156 9.5 -10.671875 8.875 -11.046875 C 8.25 -11.421875 7.546875 -11.601562 6.765625 -11.59375 C 6.109375 -11.59375 5.507812 -11.453125 4.96875 -11.171875 C 4.425781 -10.890625 3.957031 -10.515625 3.5625 -10.046875 C 3.175781 -9.578125 2.875 -9.035156 2.65625 -8.421875 C 2.4375 -7.804688 2.328125 -7.160156 2.328125 -6.484375 C 2.328125 -5.722656 2.445312 -5.019531 2.6875 -4.375 C 2.925781 -3.726562 3.226562 -3.203125 3.59375 -2.796875 C 3.96875 -2.390625 4.425781 -2.050781 4.96875 -1.78125 C 5.507812 -1.519531 6.113281 -1.390625 6.78125 -1.390625 C 7.863281 -1.390625 8.753906 -1.65625 9.453125 -2.1875 C 10.148438 -2.71875 10.640625 -3.546875 10.921875 -4.671875 L 7.3125 -4.671875 L 7.3125 -6.140625 L 12.78125 -6.140625 L 12.78125 0.046875 Z M 11.1875 0.046875 "/></g></g></g><g fill="#ffffff" fill-opacity="1"><g transform="translate(15.785723, 24.771829)"><g><path d="M 6.046875 -0.8125 C 5.710938 -0.5 5.34375 -0.242188 4.9375 -0.046875 C 4.53125 0.148438 4.066406 0.25 3.546875 0.25 C 3.109375 0.25 2.707031 0.179688 2.34375 0.046875 C 1.988281 -0.0859375 1.679688 -0.273438 1.421875 -0.515625 C 1.160156 -0.753906 0.957031 -1.03125 0.8125 -1.34375 C 0.664062 -1.65625 0.59375 -1.984375 0.59375 -2.328125 C 0.59375 -2.703125 0.644531 -3.035156 0.75 -3.328125 C 0.863281 -3.617188 1.015625 -3.867188 1.203125 -4.078125 C 1.390625 -4.296875 1.601562 -4.476562 1.84375 -4.625 C 2.09375 -4.769531 2.351562 -4.882812 2.625 -4.96875 C 2.894531 -5.0625 3.171875 -5.125 3.453125 -5.15625 C 3.734375 -5.195312 4.003906 -5.21875 4.265625 -5.21875 C 4.671875 -5.21875 5.007812 -5.203125 5.28125 -5.171875 C 5.5625 -5.148438 5.816406 -5.117188 6.046875 -5.078125 L 6.0625 -5.796875 C 6.0625 -6.109375 6.015625 -6.378906 5.921875 -6.609375 C 5.828125 -6.835938 5.695312 -7.023438 5.53125 -7.171875 C 5.375 -7.328125 5.179688 -7.441406 4.953125 -7.515625 C 4.722656 -7.585938 4.460938 -7.625 4.171875 -7.625 C 3.910156 -7.625 3.65625 -7.601562 3.40625 -7.5625 C 3.164062 -7.53125 2.9375 -7.484375 2.71875 -7.421875 C 2.507812 -7.367188 2.3125 -7.300781 2.125 -7.21875 C 1.945312 -7.144531 1.796875 -7.066406 1.671875 -6.984375 L 1.15625 -8.078125 C 1.363281 -8.210938 1.59375 -8.335938 1.84375 -8.453125 C 2.09375 -8.578125 2.351562 -8.675781 2.625 -8.75 C 2.90625 -8.832031 3.1875 -8.898438 3.46875 -8.953125 C 3.757812 -9.003906 4.046875 -9.03125 4.328125 -9.03125 C 4.835938 -9.03125 5.296875 -8.96875 5.703125 -8.84375 C 6.117188 -8.71875 6.46875 -8.523438 6.75 -8.265625 C 7.03125 -8.015625 7.25 -7.691406 7.40625 -7.296875 C 7.5625 -6.898438 7.640625 -6.425781 7.640625 -5.875 L 7.625 -1.46875 L 8.609375 -1.46875 L 8.609375 0 L 6.046875 0 Z M 3.890625 -1.078125 C 4.097656 -1.078125 4.304688 -1.101562 4.515625 -1.15625 C 4.734375 -1.207031 4.9375 -1.273438 5.125 -1.359375 C 5.3125 -1.453125 5.484375 -1.554688 5.640625 -1.671875 C 5.796875 -1.785156 5.929688 -1.90625 6.046875 -2.03125 L 6.046875 -4.03125 L 4.203125 -4.03125 C 3.898438 -4.03125 3.617188 -3.992188 3.359375 -3.921875 C 3.109375 -3.859375 2.890625 -3.757812 2.703125 -3.625 C 2.523438 -3.5 2.382812 -3.335938 2.28125 -3.140625 C 2.175781 -2.953125 2.125 -2.734375 2.125 -2.484375 C 2.125 -2.242188 2.164062 -2.035156 2.25 -1.859375 C 2.34375 -1.691406 2.46875 -1.550781 2.625 -1.4375 C 2.78125 -1.320312 2.960938 -1.234375 3.171875 -1.171875 C 3.390625 -1.109375 3.628906 -1.078125 3.890625 -1.078125 Z M 3.890625 -1.078125 "/></g></g></g><g fill="#ffffff" fill-opacity="1"><g transform="translate(25.327119, 24.771829)"><g><path d="M 0.859375 -8.828125 L 3.671875 -8.828125 L 3.671875 -7.796875 L 3.6875 -7.796875 C 3.875 -7.960938 4.070312 -8.117188 4.28125 -8.265625 C 4.5 -8.410156 4.722656 -8.535156 4.953125 -8.640625 C 5.191406 -8.742188 5.4375 -8.828125 5.6875 -8.890625 C 5.9375 -8.953125 6.203125 -8.984375 6.484375 -8.984375 C 7.117188 -8.984375 7.664062 -8.863281 8.125 -8.625 C 8.582031 -8.394531 8.9375 -8.03125 9.1875 -7.53125 C 9.40625 -7.726562 9.628906 -7.914062 9.859375 -8.09375 C 10.097656 -8.269531 10.347656 -8.421875 10.609375 -8.546875 C 10.867188 -8.679688 11.140625 -8.785156 11.421875 -8.859375 C 11.710938 -8.941406 12.007812 -8.984375 12.3125 -8.984375 C 12.789062 -8.984375 13.21875 -8.914062 13.59375 -8.78125 C 13.976562 -8.65625 14.300781 -8.457031 14.5625 -8.1875 C 14.832031 -7.925781 15.035156 -7.585938 15.171875 -7.171875 C 15.316406 -6.753906 15.390625 -6.257812 15.390625 -5.6875 L 15.390625 -1.46875 L 16.625 -1.46875 L 16.625 0 L 12.5 0 L 12.5 -1.46875 L 13.734375 -1.46875 L 13.734375 -5.5 C 13.734375 -6.175781 13.5625 -6.6875 13.21875 -7.03125 C 12.882812 -7.382812 12.394531 -7.5625 11.75 -7.5625 C 11.375 -7.5625 10.984375 -7.46875 10.578125 -7.28125 C 10.179688 -7.101562 9.84375 -6.875 9.5625 -6.59375 L 9.5625 -1.46875 L 10.78125 -1.46875 L 10.78125 0 L 6.671875 0 L 6.671875 -1.46875 L 7.90625 -1.46875 L 7.90625 -5.5 C 7.90625 -6.175781 7.734375 -6.6875 7.390625 -7.03125 C 7.046875 -7.382812 6.554688 -7.5625 5.921875 -7.5625 C 5.546875 -7.5625 5.171875 -7.472656 4.796875 -7.296875 C 4.421875 -7.117188 4.066406 -6.898438 3.734375 -6.640625 L 3.734375 -1.46875 L 4.984375 -1.46875 L 4.984375 0 L 0.859375 0 L 0.859375 -1.46875 L 2.078125 -1.46875 L 2.078125 -7.359375 L 0.859375 -7.359375 Z M 0.859375 -8.828125 "/></g></g></g><g fill="#ffffff" fill-opacity="1"><g transform="translate(42.791282, 24.771829)"><g><path d="M 2.359375 -4.203125 C 2.359375 -3.953125 2.375 -3.722656 2.40625 -3.515625 C 2.445312 -3.316406 2.5 -3.125 2.5625 -2.9375 C 2.769531 -2.363281 3.101562 -1.929688 3.5625 -1.640625 C 4.03125 -1.359375 4.554688 -1.21875 5.140625 -1.21875 C 5.609375 -1.21875 6.054688 -1.28125 6.484375 -1.40625 C 6.921875 -1.539062 7.378906 -1.742188 7.859375 -2.015625 L 8.5 -0.921875 C 7.914062 -0.523438 7.332031 -0.226562 6.75 -0.03125 C 6.164062 0.15625 5.554688 0.25 4.921875 0.25 C 4.328125 0.25 3.773438 0.148438 3.265625 -0.046875 C 2.753906 -0.242188 2.316406 -0.539062 1.953125 -0.9375 C 1.585938 -1.332031 1.300781 -1.820312 1.09375 -2.40625 C 0.882812 -2.988281 0.78125 -3.671875 0.78125 -4.453125 C 0.78125 -5.078125 0.867188 -5.671875 1.046875 -6.234375 C 1.222656 -6.796875 1.484375 -7.285156 1.828125 -7.703125 C 2.179688 -8.117188 2.613281 -8.445312 3.125 -8.6875 C 3.644531 -8.9375 4.25 -9.0625 4.9375 -9.0625 C 5.601562 -9.0625 6.160156 -8.957031 6.609375 -8.75 C 7.054688 -8.550781 7.421875 -8.285156 7.703125 -7.953125 C 7.984375 -7.617188 8.195312 -7.238281 8.34375 -6.8125 C 8.488281 -6.382812 8.585938 -5.953125 8.640625 -5.515625 C 8.671875 -5.296875 8.6875 -5.078125 8.6875 -4.859375 C 8.695312 -4.640625 8.703125 -4.421875 8.703125 -4.203125 Z M 4.828125 -7.734375 C 4.460938 -7.734375 4.140625 -7.679688 3.859375 -7.578125 C 3.585938 -7.472656 3.351562 -7.320312 3.15625 -7.125 C 2.96875 -6.925781 2.8125 -6.679688 2.6875 -6.390625 C 2.570312 -6.109375 2.488281 -5.796875 2.4375 -5.453125 L 7.015625 -5.453125 C 6.992188 -5.773438 6.941406 -6.078125 6.859375 -6.359375 C 6.773438 -6.640625 6.644531 -6.878906 6.46875 -7.078125 C 6.300781 -7.285156 6.082031 -7.445312 5.8125 -7.5625 C 5.550781 -7.675781 5.222656 -7.734375 4.828125 -7.734375 Z M 4.828125 -7.734375 "/></g></g></g><g fill="#ffffff" fill-opacity="1"><g transform="translate(52.801229, 24.771829)"><g><path d="M 1.21875 -12.921875 L 5.40625 -12.921875 L 5.40625 -11.4375 L 4.109375 -11.4375 L 4.109375 -1.46875 L 8.578125 -1.46875 C 8.660156 -1.46875 8.75 -1.488281 8.84375 -1.53125 C 8.9375 -1.570312 9.019531 -1.625 9.09375 -1.6875 C 9.164062 -1.757812 9.222656 -1.835938 9.265625 -1.921875 C 9.316406 -2.015625 9.34375 -2.109375 9.34375 -2.203125 L 9.34375 -3.828125 L 10.953125 -3.828125 L 10.953125 0 L 1.21875 0 L 1.21875 -1.46875 L 2.453125 -1.46875 L 2.453125 -11.4375 L 1.21875 -11.4375 Z M 1.21875 -12.921875 "/></g></g></g><g fill="#ffffff" fill-opacity="1"><g transform="translate(63.841988, 24.771829)"><g><path d="M 6.171875 -8.828125 L 9.015625 -8.828125 L 9.015625 -1.46875 L 10 -1.46875 L 10 0 L 7.421875 0 L 7.421875 -0.8125 C 7.023438 -0.507812 6.59375 -0.269531 6.125 -0.09375 C 5.65625 0.0703125 5.15625 0.15625 4.625 0.15625 C 4.175781 0.15625 3.769531 0.09375 3.40625 -0.03125 C 3.050781 -0.164062 2.742188 -0.367188 2.484375 -0.640625 C 2.234375 -0.910156 2.039062 -1.25 1.90625 -1.65625 C 1.769531 -2.070312 1.703125 -2.566406 1.703125 -3.140625 L 1.703125 -7.359375 L 0.515625 -7.359375 L 0.515625 -8.828125 L 3.359375 -8.828125 L 3.359375 -3.328125 C 3.359375 -2.648438 3.515625 -2.140625 3.828125 -1.796875 C 4.140625 -1.453125 4.585938 -1.28125 5.171875 -1.28125 C 5.515625 -1.28125 5.878906 -1.34375 6.265625 -1.46875 C 6.648438 -1.59375 7.015625 -1.765625 7.359375 -1.984375 L 7.359375 -7.359375 L 6.171875 -7.359375 Z M 6.171875 -8.828125 "/></g></g></g><g fill="#ffffff" fill-opacity="1"><g transform="translate(75.342778, 24.771829)"><g><path d="M 0.78125 -13.265625 L 3.890625 -13.265625 L 3.890625 -11.796875 L 3.875 -11.796875 L 3.875 -5.203125 L 5.40625 -5.203125 L 7.515625 -7.359375 L 6.984375 -7.359375 L 6.984375 -8.828125 L 10.328125 -8.828125 L 10.328125 -7.359375 L 9.21875 -7.359375 L 6.53125 -4.59375 L 9.453125 -1.46875 L 10.53125 -1.46875 L 10.53125 0 L 8.65625 0 L 5.046875 -3.953125 L 3.875 -3.953125 L 3.875 -1.46875 L 4.609375 -1.46875 L 4.609375 0 L 0.828125 0 L 0.828125 -1.46875 L 2.28125 -1.46875 L 2.28125 -11.796875 L 0.78125 -11.796875 Z M 0.78125 -13.265625 "/></g></g></g></svg>